<svg xmlns="http://www.w3.org/2000/svg" xmlns:xlink="http://www.w3.org/1999/xlink"><symbol id="icon-appliance" viewBox="0 0 1000 1000"><g enable-background="new 0 0 1000 1000">
<metadata> Svg Vector Icons : http://www.onlinewebfonts.com/icon </metadata>
<g><g transform="translate(0.000000,511.000000) scale(0.100000,-0.100000)"><path d="M3009.7,3280.5c0-1671.4,2.3-1734.2,46.6-1869.2c62.9-186.2,193.2-351.5,365.5-463.2l144.3-93.1v-2695.6c2.3-2625.7,4.7-2697.9,48.9-2784.1c55.9-111.7,162.9-165.3,330.6-165.3c153.6,0,267.7,58.2,325.9,165.3c39.6,74.5,41.9,207.2,41.9,2781.7V861.9l74.5,30.3c114.1,46.6,328.2,272.3,398,419c32.6,72.2,72.2,197.9,83.8,279.3c16.3,93.1,25.6,763.5,25.6,1785.4V5010h-197.9h-197.9V3857.8V2703.2l-58.2-55.9c-97.8-100.1-244.4-67.5-288.6,60.5c-16.3,51.2-25.6,435.3-25.6,1187.2v1115h-186.2h-186.2V3881c0-947.4-4.7-1142.9-34.9-1196.5c-55.9-111.7-188.6-130.4-279.3-37.2l-58.2,55.9v1154.6V5010H3196h-186.2V3280.5z"/><path d="M6792.4,4963.4c-379.4-181.6-714.6-882.2-966-2013.5c-186.2-842.7-325.9-2085.7-325.9-2902.8v-297.9h372.4h372.5v-2134.6c0-1987.9,2.3-2141.6,41.9-2218.4c60.5-121.1,172.3-186.2,323.6-186.2c162.9,0,274.7,48.9,332.9,144.3c46.6,76.8,46.6,102.4,46.6,4867.4V5010H6939C6908.8,5010,6843.6,4989.1,6792.4,4963.4z"/></g></g>
</g></symbol><symbol id="icon-beer" viewBox="0 0 1000 1000"><g enable-background="new 0 0 1000 1000">
<metadata> Svg Vector Icons : http://www.onlinewebfonts.com/icon </metadata>
<g><g transform="translate(0.000000,511.000000) scale(0.100000,-0.100000)"><path d="M2936,4967.4c-360.9-94.6-687-308.8-916.7-596.3l-75.3-92.6l-245.1-5.8c-301-5.8-484.4-57.9-702.5-200.7C321,3631.9,184,2721,697.4,2097.7l86.8-106.1l7.7-2721.1c5.8-3018.3-1.9-2827.2,133.2-3082c117.7-220,341.6-382.1,565.4-409.1l106.1-13.5v-277.9V-4790h2508.8h2508.8v276v277.9l104.2,23.2c233.5,52.1,438.1,216.1,538.4,432.3c56,117.7,110,343.5,110,455.5c0,65.6,7.7,79.1,44.4,86.8c416.9,73.3,540.4,110,795.1,233.5c694.7,333.9,1213.9,1028.6,1374.1,1837.2c44.4,233.5,44.4,743,0,976.5c-129.3,648.4-484.4,1223.5-995.8,1605.6c-279.8,210.4-675.4,382.1-999.7,434.2c-231.6,36.7-218.1,30.9-218.1,117.7c0,67.5,15.4,96.5,94.6,189.1c218.1,250.9,314.6,497.9,318.4,802.8c1.9,229.7-25.1,353.2-123.5,559.7c-115.8,243.2-355.1,478.6-590.5,579c-187.2,81.1-266.3,94.6-509.5,96.5c-214.2,0-256.7-5.8-389.8-54l-148.6-54L5894.5,4207c-146.7,142.8-285.6,229.7-480.5,301c-127.4,46.3-166,52.1-401.4,50.2c-194.9,0-281.8-7.7-343.5-32.8l-81.1-30.9l-121.6,108.1c-162.1,144.7-362.8,258.6-588.6,333.9c-171.8,59.8-210.4,65.6-476.7,71.4C3144.4,5013.7,3092.3,5009.8,2936,4967.4z M3626.9,4714.5c287.5-59.8,519.1-185.3,737.2-401.4l152.5-152.5l108.1,50.2c281.8,125.4,633,106.1,887.7-50.2c113.9-69.5,268.3-227.7,341.6-347.4c38.6-61.7,71.4-111.9,77.2-111.9c3.9,0,54,28.9,110,65.6c387.9,248.9,870.4,196.8,1190.7-123.5c291.4-293.3,353.2-723.7,160.2-1109.7c-63.7-123.5-260.5-318.4-387.9-384c-366.7-185.3-814.4-123.5-1084.6,152.5l-84.9,86.8l79.1,67.5c137,117.7,314.6,351.2,314.6,416.8c0,73.3-61.7,133.2-137,133.2c-44.4,0-73.3-17.4-119.6-71.4c-131.2-158.2-416.9-422.6-507.6-472.8c-254.7-138.9-579-144.7-868.4-17.4l-81,36.7l-160.2-158.2c-185.3-179.5-345.4-279.8-567.4-353.2c-139-48.2-181.4-52.1-434.2-52.1c-368.6,0-501.8,40.5-843.4,258.6c-38.6,25.1-48.2,23.2-96.5-15.4c-193-154.4-403.3-237.4-633-249c-214.2-13.5-353.2,15.4-530.7,102.3C718.6,2281,512.1,2933.3,791.9,3456.3c169.8,320.4,563.5,553.9,934.1,553.9c46.3,0,83-5.8,83-13.5c0-9.6-17.4-61.7-40.5-119.6c-96.5-258.6-185.3-760.4-148.6-843.4c27-59.8,110-92.6,175.6-67.5c65.6,25.1,83,63.7,98.4,220c7.7,71.4,36.7,227.7,67.5,347.4c108.1,428.4,247,681.2,482.5,874.2C2777.7,4685.6,3223.5,4801.4,3626.9,4714.5z M5718.8,2101.5c243.2-227.7,511.4-333.9,837.6-333.9c193,0,250.9,11.6,507.5,94.6c32.8,9.7,32.8-110,29-2649.7c-5.8-2477.9-7.7-2669-40.5-2761.6c-52.1-156.3-144.7-274-264.4-341.6l-106.1-59.8l-2537.8-5.8c-1752.3-3.9-2568.6,1.9-2638.1,15.4c-198.8,42.5-345.4,204.6-399.5,445.8c-27,115.8-30.9,445.8-30.9,2701.8c0,2439.3,1.9,2568.6,34.7,2555.1c287.6-121.6,528.8-160.2,770-127.4c179.5,25.1,416.8,108.1,526.8,181.4l65.6,46.3l156.3-73.3c250.9-121.6,420.7-158.2,723.7-158.2c204.6,0,293.3,9.6,414.9,42.5c216.1,56,486.3,194.9,669.7,341.6l154.4,125.4l119.6-29c239.3-59.8,580.9-32.8,791.2,63.7c44.4,21.2,83,38.6,86.8,38.6C5593.4,2215.4,5651.3,2163.3,5718.8,2101.5z M7745.2,1549.6c366.7-106.1,698.6-310.7,978.4-606C9601.7,21.1,9570.8-1486.1,8658-2368c-328.1-316.5-646.5-490.2-1065.3-579c-233.5-50.2-225.8-56-225.8,140.9v169.8l189.1,42.5c472.8,108.1,874.2,386,1148.3,799c129.3,193,212.3,382.1,277.9,631.1c42.5,160.2,50.2,225.8,50.2,484.4c0,262.5-7.7,324.2-52.1,492.1c-200.7,768.1-787.4,1316.2-1540,1445.5l-73.3,13.5v175.6v175.6l104.2-13.5C7527.1,1603.6,7650.7,1576.6,7745.2,1549.6z M7575.4,941.7c511.4-142.8,930.2-553.9,1100-1080.7c113.9-355.1,110-768.1-11.6-1119.3c-179.5-515.3-607.9-918.6-1115.5-1051.8c-61.7-15.4-127.4-28.9-146.7-28.9c-32.8,0-34.7,77.2-34.7,1659.7c0,1574.8,1.9,1659.7,34.7,1659.7C7419.1,980.3,7498.2,962.9,7575.4,941.7z M6324.8-4375.1v-144.7H4105.5H1886.1v144.7v144.7h2219.3h2219.3V-4375.1z"/><path d="M2177.6,930.1c-40.5-52.1-40.5-56-40.5-2109.3c0-2045.7,0-2059.2,38.6-2101.6c52.1-56,154.4-56,204.6-1.9c34.7,38.6,36.7,102.3,36.7,2115.1V906.9l-46.3,36.7C2304.9,995.7,2225.8,989.9,2177.6,930.1z"/><path d="M3389.5,943.6l-46.3-36.7v-2074.6c0-2012.8,1.9-2076.5,36.7-2115.1c50.2-54,152.5-54,204.6,1.9c38.6,42.5,38.6,56,38.6,2101.6c0,2053.4,0,2057.2-40.5,2109.3C3534.2,989.9,3455.1,995.7,3389.5,943.6z"/><path d="M4587.9,941.7c-38.6-38.6-38.6-63.7-38.6-2109.3c0-2315.8-9.6-2155.7,135.1-2155.7c144.7,0,135.1-160.2,135.1,2155.7c0,2045.6,0,2070.7-38.6,2109.3c-21.2,21.2-63.7,38.6-96.5,38.6C4651.6,980.3,4609.2,962.9,4587.9,941.7z"/><path d="M5786.4,930.1c-40.5-52.1-40.5-56-40.5-2109.3c0-2045.7,0-2059.2,38.6-2101.6c52.1-56,154.4-56,204.6-1.9c34.7,38.6,36.7,102.3,36.7,2115.1V906.9l-46.3,36.7C5913.8,995.7,5834.6,989.9,5786.4,930.1z"/></g></g>
</g></symbol><symbol id="icon-bread" viewBox="0 0 1000 1000"><g enable-background="new 0 0 1000 1000">
<metadata> Svg Vector Icons : http://www.onlinewebfonts.com/icon </metadata>
<g><g transform="translate(0.000000,511.000000) scale(0.100000,-0.100000)"><path d="M4292.3,4756c-58.3-6.2-258-27.7-445.3-43c-436.1-43-1148.6-187.3-1520.3-307.1c-958.2-313.3-1664.6-841.5-1981-1483.4C152.2,2529.4,103.1,2314.4,100,1872.1c0-310.2,12.3-402.3,73.7-577.4C272,999.9,502.3,671.2,800.2,397.9l251.9-236.5l15.4-2045.4l15.4-2048.5l70.6-129c86-165.8,248.8-328.6,414.6-414.6l129-70.6h3301.6h3301.6l129,70.6c165.8,86,328.6,248.8,414.6,414.6l70.6,129l15.4,2048.5l15.4,2045.4l251.8,236.5c297.9,273.3,528.3,602,626.5,896.8c101.4,291.8,101.4,835.4,3.1,1188.6c-208.8,727.9-718.7,1280.7-1551,1676.9c-549.8,261.1-1182.4,433.1-1990.2,540.6C5926.2,4746.8,4547.2,4786.7,4292.3,4756z M6319.3,4451.9c1016.6-132.1,1833.5-405.4,2377.2-795.4c288.7-205.8,605-562.1,734-823.1c141.3-285.6,202.7-522.1,227.3-869.2c36.9-583.5-193.5-1041.1-752.5-1501.8l-221.1-178.2v-2054.6c0-1787.5-6.1-2073.1-46.1-2171.4c-64.5-150.5-159.7-248.8-307.1-316.3c-116.7-55.3-276.4-58.4-3332.3-58.4s-3215.6,3.1-3332.3,58.4c-147.4,67.6-242.6,165.8-307.1,316.3c-39.9,98.3-46.1,383.9-46.1,2171.4V284.3L1092,462.4c-559,457.6-789.3,918.3-752.5,1501.8c33.8,543.6,205.8,952.1,552.8,1323.7c473,506.8,1108.7,829.2,2048.5,1035c322.5,70.7,912.2,156.7,1305.3,187.4C4608.6,4537.9,5950.7,4501.1,6319.3,4451.9z"/><path d="M4138.7,3880.7c-1449.6-125.9-2484.6-537.5-2905.4-1154.8c-202.7-294.8-267.2-494.5-270.3-838.4c-3.1-261.1,6.1-307.1,79.9-448.4c89.1-168.9,353.2-448.4,571.2-605c73.7-52.2,172-159.7,215-236.5l82.9-138.2l9.2-2039.3c6.1-1422,18.4-2054.7,43-2082.3c46.1-55.3,6013.5-58.3,6068.8-3.1c27.6,27.7,36.9,522.1,36.9,2033.2C8073-7.5,8079.1,391.7,8116,490c27.6,86,107.5,178.1,251.8,307.1c506.8,445.3,651.1,657.3,678.7,982.8c43,555.9-310.2,1154.8-872.2,1480.4C7606.2,3592,6792.3,3807,5815.6,3883.8C5361.1,3917.6,4565.6,3917.6,4138.7,3880.7z M6356.2,3576.6c1305.3-196.5,2122.2-629.6,2358.7-1250c36.9-98.3,76.8-276.4,86-399.3c21.5-347.1-21.5-414.6-651.1-985.9c-86-76.8-178.1-202.7-227.3-307.1l-82.9-175.1l-9.2-1956.4l-9.2-1959.5H4998.7H2176.2l-9.2,1971.7L2157.7,490l-107.5,196.6c-76.8,141.3-159.7,239.6-307.1,356.3c-254.9,202.7-454.5,420.8-509.8,552.8c-89.1,211.9-27.6,632.7,132.1,906c350.1,592.7,1360.6,1007.4,2773.3,1136.4C4639.3,3684.1,5877,3650.4,6356.2,3576.6z"/><path d="M2980.8,1518.9c-199.6-119.8-193.5-58.3-193.5-2033.2c0-1722.9,3.1-1793.6,61.4-1888.8c64.5-104.4,202.7-193.5,307.1-193.5s242.6,89.1,307.1,193.5c58.3,95.2,61.4,165.9,61.4,1895c0,1729.1-3.1,1799.8-61.4,1895c-64.5,107.5-202.7,193.5-313.3,193.5C3109.8,1580.3,3036.1,1552.7,2980.8,1518.9z M3245,1291.6c24.6-27.6,30.7-531.3,27.6-1815.1c-9.2-1652.3-12.3-1778.2-61.4-1808.9c-39.9-24.6-70.6-24.6-107.5,0c-52.2,30.7-55.3,156.6-64.5,1808.9c-3.1,1283.8,3.1,1787.5,27.6,1815.1c18.4,24.6,58.3,43,89.1,43S3226.5,1316.2,3245,1291.6z"/><path d="M4209.3,1518.9c-199.6-119.8-193.5-58.3-193.5-2033.2c0-1722.9,3.1-1793.6,61.4-1888.8c64.5-104.4,202.7-193.5,307.1-193.5s242.6,89.1,307.1,193.5c58.3,95.2,61.4,165.9,61.4,1895c0,1729.1-3.1,1799.8-61.4,1895c-64.5,107.5-202.7,193.5-313.3,193.5C4338.3,1580.3,4264.6,1552.7,4209.3,1518.9z M4473.5,1291.6c24.6-27.6,30.7-531.3,27.6-1815.1c-9.2-1652.3-12.3-1778.2-61.4-1808.9c-39.9-24.6-70.6-24.6-107.5,0c-52.2,30.7-55.3,156.6-64.5,1808.9c-3.1,1283.8,3.1,1787.5,27.6,1815.1c18.4,24.6,58.3,43,89.1,43S4455,1316.2,4473.5,1291.6z"/><path d="M5437.8,1518.9c-199.6-119.8-193.5-58.3-193.5-2033.2c0-1722.9,3-1793.6,61.4-1888.8c64.5-104.4,202.7-193.5,307.1-193.5s242.6,89.1,307.1,193.5c58.4,95.2,61.4,165.9,61.4,1895c0,1729.1-3,1799.8-61.4,1895c-64.5,107.5-202.7,193.5-313.3,193.5C5566.8,1580.3,5493.1,1552.7,5437.8,1518.9z M5702,1291.6c24.6-27.6,30.7-531.3,27.6-1815.1c-9.2-1652.3-12.3-1778.2-61.4-1808.9c-39.9-24.6-70.6-24.6-107.5,0c-52.2,30.7-55.3,156.6-64.5,1808.9c-3.1,1283.8,3.1,1787.5,27.6,1815.1c18.4,24.6,58.4,43,89.1,43S5683.5,1316.2,5702,1291.6z"/><path d="M6666.3,1518.9c-199.6-119.8-193.5-58.3-193.5-2033.2c0-1722.9,3.1-1793.6,61.4-1888.8c64.5-104.4,202.7-193.5,307.1-193.5s242.6,89.1,307.1,193.5c58.4,95.2,61.4,165.9,61.4,1895c0,1729.1-3.1,1799.8-61.4,1895c-64.5,107.5-202.7,193.5-313.3,193.5C6795.3,1580.3,6721.6,1552.7,6666.3,1518.9z M6930.5,1291.6c24.6-27.6,30.7-531.3,27.6-1815.1c-9.2-1652.3-12.3-1778.2-61.4-1808.9c-39.9-24.6-70.6-24.6-107.5,0c-52.2,30.7-55.3,156.6-64.5,1808.9c-3.1,1283.8,3,1787.5,27.6,1815.1c18.4,24.6,58.4,43,89.1,43C6872.1,1334.6,6912,1316.2,6930.5,1291.6z"/></g></g>
</g></symbol><symbol id="icon-github-hover" viewBox="0 0 512 512"><g style="enable-background:new 0 0 512 512;">
<g>
	<path  d="M262.2,458.6c79.6,0,190.7,1.9,231.1-79c15.3-30.9,18.7-66.6,18.7-100.3h0c0-44.2-12.3-86.3-41.6-120.6
		c16.8-50.4,5.5-80.1-7.4-105.6c-47.8,0-78.7,9-115,37.2c-58.6-13.9-124.9-12.2-180.4,0.9c-36.8-28.5-67.7-38-116.1-38
		c-13.2,26.4-24.2,55.4-7.3,106.2c-57.1,65.8-52.6,161.4-22.7,220.2C63.6,461.5,181.3,458.6,262.2,458.6L262.2,458.6z M149.4,245.5
		c20.3,0,39.8,3.6,59.7,6.3c72.9,11.1,111.3-6.3,155.9-6.3c49.9,0,78.4,40.9,78.4,87.2c0,92.8-85.7,106.9-160.6,106.9
		C231.2,436.2,71,460.5,71,332.7C71,286.4,99.4,245.5,149.4,245.5L149.4,245.5z"/>
	<path style="fill:#63C85D;" d="M355.3,390.9c27.5,0,39.1-36.1,39.1-58.2s-11.6-58.2-39.1-58.2s-39.1,36.1-39.1,58.2C316.2,354.8,327.8,390.9,355.3,390.9
		L355.3,390.9z"/>
	<path style="fill:#63C85D;" d="M159.4,390.9c27.5,0,39.1-36.1,39.1-58.2s-11.6-58.2-39.1-58.2s-39.1,36.1-39.1,58.2C120.2,354.8,131.8,390.9,159.4,390.9
		L159.4,390.9z"/>
</g>
</g></symbol><symbol id="icon-github" viewBox="0 0 512 512"><g style="enable-background:new 0 0 512 512;">
<g>
	<path  d="M262.2,458.6c79.6,0,190.7,1.9,231.1-79c15.3-30.9,18.7-66.6,18.7-100.3h0c0-44.2-12.3-86.3-41.6-120.6
		c16.8-50.4,5.5-80.1-7.4-105.6c-47.8,0-78.7,9-115,37.2c-58.6-13.9-124.9-12.2-180.4,0.9c-36.8-28.5-67.7-38-116.1-38
		c-13.2,26.4-24.2,55.4-7.3,106.2c-57.1,65.8-52.6,161.4-22.7,220.2C63.6,461.5,181.3,458.6,262.2,458.6L262.2,458.6z M149.4,245.5
		c20.3,0,39.8,3.6,59.7,6.3c72.9,11.1,111.3-6.3,155.9-6.3c49.9,0,78.4,40.9,78.4,87.2c0,92.8-85.7,106.9-160.6,106.9
		C231.2,436.2,71,460.5,71,332.7C71,286.4,99.4,245.5,149.4,245.5L149.4,245.5z"/>
	<path  d="M355.3,390.9c27.5,0,39.1-36.1,39.1-58.2s-11.6-58.2-39.1-58.2s-39.1,36.1-39.1,58.2C316.2,354.8,327.8,390.9,355.3,390.9
		L355.3,390.9z"/>
	<path  d="M159.4,390.9c27.5,0,39.1-36.1,39.1-58.2s-11.6-58.2-39.1-58.2s-39.1,36.1-39.1,58.2C120.2,354.8,131.8,390.9,159.4,390.9
		L159.4,390.9z"/>
</g>
</g></symbol><symbol id="icon-hotdog" viewBox="0 0 1000 1000"><g enable-background="new 0 0 1000 1000">
<metadata> Svg Vector Icons : http://www.onlinewebfonts.com/icon </metadata>
<g><g transform="translate(0.000000,511.000000) scale(0.100000,-0.100000)"><path d="M4184.3,3106.4c-76.8-4.6-286.4-23.3-465.6-44.2c-1015.1-109.4-1734.5-391.1-2207.1-856.7c-377.2-377.2-582-859.1-633.3-1499.3l-16.3-214.2h4155.7h4155.7l-9.3,146.7c-53.6,721.7-251.5,1196.7-663.5,1587.8c-186.3,179.3-270.1,239.8-475,356.2c-500.5,281.7-1194.3,454-2083.7,516.8C5637.1,3120.4,4533.5,3125.1,4184.3,3106.4z M5860.6,2354.4c880-62.9,1566.8-242.1,1988.2-521.5c230.5-153.7,395.8-349.2,454-542.5l16.3-53.5H5022.4H1725.8l16.3,53.5C1926,1886.5,2841,2273,4277.4,2361.4C4568.4,2380.1,5564.9,2375.4,5860.6,2354.4z"/><path d="M389.4-64.5C14.6-239.1,0.6-774.6,366.2-970.1c46.6-25.6,158.3-41.9,335.3-48.9l265.4-14l51.2-153.7c72.2-214.2,230.5-502.9,358.5-654.2c486.6-570.4,1182.7-868.4,2353.7-1012.7c486.6-60.5,2093-58.2,2584.2,0c777.6,95.4,1322.4,256.1,1778.7,523.8c232.8,137.4,540.1,426,684.5,644.9c114.1,167.6,249.1,461,274.7,593.7l16.3,69.8h200.2c249.1,0,351.5,27.9,461,123.4c272.4,239.8,207.2,682.1-121.1,833.5c-88.5,41.9-263.1,44.2-4609.7,44.2C652.5-20.2,477.9-22.6,389.4-64.5z M8302.8-1072.5c-86.2-284-386.5-554.1-807.9-733.4c-521.5-221.2-1199-328.3-2193.1-349.2c-1715.8-34.9-2796.1,195.6-3306,703.1c-144.3,142-267.7,330.6-267.7,407.4c0,16.3,1089.6,23.3,3296.6,23.3h3294.3L8302.8-1072.5z"/></g></g>
</g></symbol><symbol id="icon-linkedin-hover" viewBox="0 0 682 682"><g style="enable-background:new 0 0 682 682;">

<path  d="M98.5,34.6C51.6,34.6,21,65.4,21,105.9c0,39.6,29.7,71.2,75.7,71.2h0.9c47.8,0,77.5-31.7,77.5-71.2
	C174.3,65.4,145.4,34.6,98.5,34.6z"/>
<path style="fill:#63C85D;" d="M29.1,233.4h137.1v412.4H29.1V233.4z"/>
<path style="fill:#63C85D;" d="M502.6,223.7c-73.9,0-123.5,69.5-123.5,69.5v-59.8H242v412.4H379V415.5c0-12.3,0.9-24.6,4.5-33.5
	c9.9-24.6,32.5-50.1,70.3-50.1c49.6,0,69.4,37.8,69.4,93.2v220.6h137V409.3C660.4,282.7,592.7,223.7,502.6,223.7z"/>
</g></symbol><symbol id="icon-linkedin" viewBox="0 0 682 682"><g style="enable-background:new 0 0 682 682;">

<path  d="M98.5,34.6C51.6,34.6,21,65.4,21,105.9c0,39.6,29.7,71.2,75.7,71.2h0.9c47.8,0,77.5-31.7,77.5-71.2
	C174.3,65.4,145.4,34.6,98.5,34.6z"/>
<path  d="M29.1,233.4h137.1v412.4H29.1V233.4z"/>
<path  d="M502.6,223.7c-73.9,0-123.5,69.5-123.5,69.5v-59.8H242v412.4H379V415.5c0-12.3,0.9-24.6,4.5-33.5
	c9.9-24.6,32.5-50.1,70.3-50.1c49.6,0,69.4,37.8,69.4,93.2v220.6h137V409.3C660.4,282.7,592.7,223.7,502.6,223.7z"/>
</g></symbol><symbol id="icon-mail-hover" viewBox="0 0 64 64"><g style="enable-background:new 0 0 64 64;">
<g id="Glyph_copy_2">
	<path style="fill:#63C85D;" d="M63.1,10c-0.9-1.3-2.4-2.2-4.1-2.2H5c-1.7,0-3.2,0.8-4.1,2.1l31.2,26L63.1,10z"/>
	<path style="fill:#63C85D;" d="M0,14.3v36.9c0,2.8,2.3,5,5,5h54c2.8,0,5-2.3,5-5V14.5L32.1,41.1L0,14.3z"/>
</g>
</g></symbol><symbol id="icon-mail" viewBox="0 0 64 64"><g style="enable-background:new 0 0 64 64;">
<g id="Glyph_copy_2">
	<path  d="M63.1,10c-0.9-1.3-2.4-2.2-4.1-2.2H5c-1.7,0-3.2,0.8-4.1,2.1l31.2,26L63.1,10z"/>
	<path  d="M0,14.3v36.9c0,2.8,2.3,5,5,5h54c2.8,0,5-2.3,5-5V14.5L32.1,41.1L0,14.3z"/>
</g>
</g></symbol><symbol id="icon-twitter-hover" viewBox="0 0 512 512"><g style="enable-background:new 0 0 512 512;">
<path  d="M512,97.248c-19.04,8.352-39.328,13.888-60.48,16.576c21.76-12.992,38.368-33.408,46.176-58.016
	c-20.288,12.096-42.688,20.64-66.56,25.408C411.872,60.704,384.416,48,354.464,48c-58.112,0-104.896,47.168-104.896,104.992
	c0,8.32,0.704,16.32,2.432,23.936c-87.264-4.256-164.48-46.08-216.352-109.792c-9.056,15.712-14.368,33.696-14.368,53.056
	c0,36.352,18.72,68.576,46.624,87.232c-16.864-0.32-33.408-5.216-47.424-12.928c0,0.32,0,0.736,0,1.152
	c0,51.008,36.384,93.376,84.096,103.136c-8.544,2.336-17.856,3.456-27.52,3.456c-6.72,0-13.504-0.384-19.872-1.792
	c13.6,41.568,52.192,72.128,98.08,73.12c-35.712,27.936-81.056,44.768-130.144,44.768c-8.608,0-16.864-0.384-25.12-1.44
	C46.496,446.88,101.6,464,161.024,464c193.152,0,298.752-160,298.752-298.688c0-4.64-0.16-9.12-0.384-13.568
	C480.224,136.96,497.728,118.496,512,97.248z"/>
<g>
</g>
<g>
</g>
<g>
</g>
<g>
</g>
<g>
</g>
<g>
</g>
<g>
</g>
<g>
</g>
<g>
</g>
<g>
</g>
<g>
</g>
<g>
</g>
<g>
</g>
<g>
</g>
<g>
</g>
</g></symbol><symbol id="icon-twitter" viewBox="0 0 512 512"><g style="enable-background:new 0 0 512 512;">
<path  d="M512,97.248c-19.04,8.352-39.328,13.888-60.48,16.576c21.76-12.992,38.368-33.408,46.176-58.016
	c-20.288,12.096-42.688,20.64-66.56,25.408C411.872,60.704,384.416,48,354.464,48c-58.112,0-104.896,47.168-104.896,104.992
	c0,8.32,0.704,16.32,2.432,23.936c-87.264-4.256-164.48-46.08-216.352-109.792c-9.056,15.712-14.368,33.696-14.368,53.056
	c0,36.352,18.72,68.576,46.624,87.232c-16.864-0.32-33.408-5.216-47.424-12.928c0,0.32,0,0.736,0,1.152
	c0,51.008,36.384,93.376,84.096,103.136c-8.544,2.336-17.856,3.456-27.52,3.456c-6.72,0-13.504-0.384-19.872-1.792
	c13.6,41.568,52.192,72.128,98.08,73.12c-35.712,27.936-81.056,44.768-130.144,44.768c-8.608,0-16.864-0.384-25.12-1.44
	C46.496,446.88,101.6,464,161.024,464c193.152,0,298.752-160,298.752-298.688c0-4.64-0.16-9.12-0.384-13.568
	C480.224,136.96,497.728,118.496,512,97.248z"/>
<g>
</g>
<g>
</g>
<g>
</g>
<g>
</g>
<g>
</g>
<g>
</g>
<g>
</g>
<g>
</g>
<g>
</g>
<g>
</g>
<g>
</g>
<g>
</g>
<g>
</g>
<g>
</g>
<g>
</g>
</g></symbol></svg>