<svg xmlns="http://www.w3.org/2000/svg" viewBox="0 0 1000 1000"><path d="M429.23 35.4c-5.83.62-25.8 2.77-44.53 4.3-43.61 4.3-114.86 18.73-152.03 30.71-95.82 31.33-166.46 84.15-198.1 148.34C15.22 258.06 10.31 279.56 10 323.79c0 31.02 1.23 40.23 7.37 57.74 9.83 29.48 32.86 62.35 62.65 89.68l25.19 23.65 1.54 204.54 1.54 204.85 7.06 12.9c8.6 16.58 24.88 32.86 41.46 41.46l12.9 7.06h660.32l12.9-7.06c16.58-8.6 32.86-24.88 41.46-41.46l7.06-12.9 1.54-204.85 1.54-204.54 25.18-23.65c29.79-27.33 52.83-60.2 62.65-89.68 10.14-29.18 10.14-83.54.31-118.86-20.88-72.79-71.87-128.07-155.1-167.69-54.98-26.11-118.24-43.31-199.02-54.06-35.93-4.6-173.83-8.59-199.32-5.52zm202.7 30.41c101.66 13.21 183.35 40.54 237.72 79.54 28.87 20.58 60.5 56.21 73.4 82.31 14.13 28.56 20.27 52.21 22.73 86.92 3.69 58.35-19.35 104.11-75.25 150.18l-22.11 17.82v205.46c0 178.75-.61 207.31-4.61 217.14-6.45 15.05-15.97 24.88-30.71 31.63-11.67 5.53-27.64 5.84-333.23 5.84s-321.56-.31-333.23-5.84c-14.74-6.76-24.26-16.58-30.71-31.63-3.99-9.83-4.61-38.39-4.61-217.14V482.57l-22.12-17.81C53.3 419 30.27 372.93 33.95 314.58c3.38-54.36 20.58-95.21 55.28-132.37 47.3-50.68 110.87-82.92 204.85-103.5 32.25-7.07 91.22-15.67 130.53-18.74 36.25-2.76 170.46.92 207.32 5.84z"/><path d="M413.87 122.93c-144.96 12.59-248.46 53.75-290.54 115.48-20.27 29.48-26.72 49.45-27.03 83.84-.31 26.11.61 30.71 7.99 44.84 8.91 16.89 35.32 44.84 57.12 60.5 7.37 5.22 17.2 15.97 21.5 23.65l8.29 13.82.92 203.93c.61 142.2 1.84 205.47 4.3 208.23 4.61 5.53 601.35 5.83 606.88.31 2.76-2.77 3.69-52.21 3.69-203.32.31-162.46.92-202.38 4.61-212.21 2.76-8.6 10.75-17.81 25.18-30.71 50.68-44.53 65.11-65.73 67.87-98.28 4.3-55.59-31.02-115.48-87.22-148.04-56.81-33.17-138.2-54.67-235.87-62.35-45.45-3.38-125-3.38-167.69.31zm221.75 30.41c130.53 19.65 212.22 62.96 235.87 125 3.69 9.83 7.68 27.64 8.6 39.93 2.15 34.71-2.15 41.46-65.11 98.59-8.6 7.68-17.81 20.27-22.73 30.71l-8.29 17.51-.92 195.64-.92 195.95h-564.5l-.92-197.17-.93-197.5-10.75-19.66c-7.68-14.13-15.97-23.96-30.71-35.63-25.49-20.27-45.45-42.08-50.98-55.28-8.91-21.19-2.76-63.27 13.21-90.6 35.01-59.27 136.06-100.74 277.33-113.64 50.06-4.6 173.83-1.23 221.75 6.15z"/><path d="M298.08 359.11c-19.96 11.98-19.35 5.83-19.35 203.32 0 172.29.31 179.36 6.14 188.88 6.45 10.44 20.27 19.35 30.71 19.35s24.26-8.91 30.71-19.35c5.83-9.52 6.14-16.59 6.14-189.5s-.31-179.98-6.14-189.5c-6.45-10.75-20.27-19.35-31.33-19.35-3.98.01-11.35 2.77-16.88 6.15zm26.42 22.73c2.46 2.76 3.07 53.13 2.76 181.51-.92 165.23-1.23 177.82-6.14 180.89-3.99 2.46-7.06 2.46-10.75 0-5.22-3.07-5.53-15.66-6.45-180.89-.31-128.38.31-178.75 2.76-181.51 1.84-2.46 5.83-4.3 8.91-4.3s7.06 1.84 8.91 4.3zm96.43-22.73c-19.96 11.98-19.35 5.83-19.35 203.32 0 172.29.31 179.36 6.14 188.88 6.45 10.44 20.27 19.35 30.71 19.35s24.26-8.91 30.71-19.35c5.83-9.52 6.14-16.59 6.14-189.5s-.31-179.98-6.14-189.5c-6.45-10.75-20.27-19.35-31.33-19.35-3.98.01-11.35 2.77-16.88 6.15zm26.42 22.73c2.46 2.76 3.07 53.13 2.76 181.51-.92 165.23-1.23 177.82-6.14 180.89-3.99 2.46-7.06 2.46-10.75 0-5.22-3.07-5.53-15.66-6.45-180.89-.31-128.38.31-178.75 2.76-181.51 1.84-2.46 5.83-4.3 8.91-4.3s7.06 1.84 8.91 4.3zm96.43-22.73c-19.96 11.98-19.35 5.83-19.35 203.32 0 172.29.3 179.36 6.14 188.88 6.45 10.44 20.27 19.35 30.71 19.35s24.26-8.91 30.71-19.35c5.84-9.52 6.14-16.59 6.14-189.5s-.3-179.98-6.14-189.5c-6.45-10.75-20.27-19.35-31.33-19.35-3.98.01-11.35 2.77-16.88 6.15zm26.42 22.73c2.46 2.76 3.07 53.13 2.76 181.51-.92 165.23-1.23 177.82-6.14 180.89-3.99 2.46-7.06 2.46-10.75 0-5.22-3.07-5.53-15.66-6.45-180.89-.31-128.38.31-178.75 2.76-181.51 1.84-2.46 5.84-4.3 8.91-4.3s7.06 1.84 8.91 4.3zm96.43-22.73c-19.96 11.98-19.35 5.83-19.35 203.32 0 172.29.31 179.36 6.14 188.88 6.45 10.44 20.27 19.35 30.71 19.35s24.26-8.91 30.71-19.35c5.84-9.52 6.14-16.59 6.14-189.5s-.31-179.98-6.14-189.5c-6.45-10.75-20.27-19.35-31.33-19.35-3.98.01-11.35 2.77-16.88 6.15zm26.42 22.73c2.46 2.76 3.07 53.13 2.76 181.51-.92 165.23-1.23 177.82-6.14 180.89-3.99 2.46-7.06 2.46-10.75 0-5.22-3.07-5.53-15.66-6.45-180.89-.31-128.38.3-178.75 2.76-181.51 1.84-2.46 5.84-4.3 8.91-4.3 3.07 0 7.06 1.84 8.91 4.3z"/></svg>