<svg xmlns="http://www.w3.org/2000/svg" viewBox="0 0 1000 1000"><path d="M300.97 182.95c0 167.14.23 173.42 4.66 186.92 6.29 18.62 19.32 35.15 36.55 46.32l14.43 9.31v269.56c.23 262.57.47 269.79 4.89 278.41 5.59 11.17 16.29 16.53 33.06 16.53 15.36 0 26.77-5.82 32.59-16.53 3.96-7.45 4.19-20.72 4.19-278.17V424.81l7.45-3.03c11.41-4.66 32.82-27.23 39.8-41.9 3.26-7.22 7.22-19.79 8.38-27.93 1.63-9.31 2.56-76.35 2.56-178.54V10h-39.58v230.68l-5.82 5.59c-9.78 10.01-24.44 6.75-28.86-6.05-1.63-5.12-2.56-43.53-2.56-118.72V10h-37.24v112.9c0 94.74-.47 114.29-3.49 119.65-5.59 11.17-18.86 13.04-27.93 3.72l-5.82-5.59V10h-37.25v172.95zM679.24 14.66c-37.94 18.16-71.46 88.22-96.6 201.35-18.62 84.27-32.59 208.57-32.59 290.28v29.79h74.49v213.46c0 198.79.23 214.16 4.19 221.84 6.05 12.11 17.23 18.62 32.36 18.62 16.29 0 27.47-4.89 33.29-14.43 4.66-7.68 4.66-10.24 4.66-486.74V10h-5.14c-3.02 0-9.54 2.09-14.66 4.66z"/></svg>