<svg xmlns="http://www.w3.org/2000/svg" viewBox="0 0 1000 1000"><path d="M293.6 14.26c-36.09 9.46-68.7 30.88-91.67 59.63l-7.53 9.26-24.51.58c-30.1.58-48.44 5.79-70.25 20.07-67.54 44.01-81.24 135.1-29.9 197.43l8.68 10.61.77 272.11c.58 301.83-.19 282.72 13.32 308.2 11.77 22 34.16 38.21 56.54 40.91l10.61 1.35V990h501.76v-55.39l10.42-2.32c23.35-5.21 43.81-21.61 53.84-43.23 5.6-11.77 11-34.35 11-45.55 0-6.56.77-7.91 4.44-8.68 41.69-7.33 54.04-11 79.51-23.35 69.47-33.39 121.39-102.86 137.41-183.72 4.44-23.35 4.44-74.3 0-97.65-12.93-64.84-48.44-122.35-99.58-160.56-27.98-21.04-67.54-38.21-99.97-43.42-23.16-3.67-21.81-3.09-21.81-11.77 0-6.75 1.54-9.65 9.46-18.91 21.81-25.09 31.46-49.79 31.84-80.28.19-22.97-2.51-35.32-12.35-55.97-11.58-24.32-35.51-47.86-59.05-57.9-18.72-8.11-26.63-9.46-50.95-9.65-21.42 0-25.67.58-38.98 5.4l-14.86 5.4-12.34-12.15c-14.67-14.28-28.56-22.97-48.05-30.1-12.74-4.63-16.6-5.21-40.14-5.02-19.49 0-28.18.77-34.35 3.28l-8.11 3.09-12.16-10.81c-16.21-14.47-36.28-25.86-58.86-33.39-17.18-5.98-21.04-6.56-47.67-7.14-25.67-.58-30.88-.19-46.51 4.05zm69.09 25.29c28.75 5.98 51.91 18.53 73.72 40.14l15.25 15.25 10.81-5.02c28.18-12.54 63.3-10.61 88.77 5.02 11.39 6.95 26.83 22.77 34.16 34.74 3.86 6.17 7.14 11.19 7.72 11.19.39 0 5.4-2.89 11-6.56 38.79-24.89 87.04-19.68 119.07 12.35 29.14 29.33 35.32 72.37 16.02 110.97-6.37 12.35-26.05 31.84-38.79 38.4-36.67 18.53-81.44 12.35-108.46-15.25l-8.49-8.68 7.91-6.75c13.7-11.77 31.46-35.12 31.46-41.68 0-7.33-6.17-13.32-13.7-13.32-4.44 0-7.33 1.74-11.96 7.14-13.12 15.82-41.69 42.26-50.76 47.28-25.47 13.89-57.9 14.47-86.84 1.74l-8.1-3.67-16.02 15.82c-18.53 17.95-34.54 27.98-56.74 35.32-13.9 4.82-18.14 5.21-43.42 5.21-36.86 0-50.18-4.05-84.34-25.86-3.86-2.51-4.82-2.32-9.65 1.54-19.3 15.44-40.33 23.74-63.3 24.9-21.42 1.35-35.32-1.54-53.07-10.23-53.08-26.64-73.73-91.87-45.75-144.17 16.98-32.04 56.35-55.39 93.41-55.39 4.63 0 8.3.58 8.3 1.35 0 .96-1.74 6.17-4.05 11.96-9.65 25.86-18.53 76.04-14.86 84.34 2.7 5.98 11 9.26 17.56 6.75 6.56-2.51 8.3-6.37 9.84-22 .77-7.14 3.67-22.77 6.75-34.74 10.81-42.84 24.7-68.12 48.25-87.42 33.38-27.78 77.96-39.36 118.3-30.67zm209.19 261.3c24.32 22.77 51.14 33.39 83.76 33.39 19.3 0 25.09-1.16 50.75-9.46 3.28-.97 3.28 11 2.9 264.97-.58 247.79-.77 266.9-4.05 276.16-5.21 15.63-14.47 27.4-26.44 34.16l-10.61 5.98-253.78.58c-175.23.39-256.86-.19-263.81-1.54-19.88-4.25-34.54-20.46-39.95-44.58-2.7-11.58-3.09-44.58-3.09-270.18 0-243.93.19-256.86 3.47-255.51 28.76 12.16 52.88 16.02 77 12.74 17.95-2.51 41.68-10.81 52.68-18.14l6.56-4.63 15.63 7.33c25.09 12.16 42.07 15.82 72.37 15.82 20.46 0 29.33-.96 41.49-4.25 21.61-5.6 48.63-19.49 66.97-34.16l15.44-12.54 11.96 2.9c23.93 5.98 58.09 3.28 79.12-6.37 4.44-2.12 8.3-3.86 8.68-3.86.41-.2 6.2 5.01 12.95 11.19zm202.64 55.19c36.67 10.61 69.86 31.07 97.84 60.6 87.81 92.25 84.72 242.97-6.56 331.16-32.81 31.65-64.65 49.02-106.53 57.9-23.35 5.02-22.58 5.6-22.58-14.09v-16.98l18.91-4.25c47.28-10.81 87.42-38.6 114.83-79.9 12.93-19.3 21.23-38.21 27.79-63.11 4.25-16.02 5.02-22.58 5.02-48.44 0-26.25-.77-32.42-5.21-49.21-20.07-76.81-78.74-131.62-154-144.55l-7.33-1.35V348.7l10.42 1.35c5.59.59 17.95 3.29 27.4 5.99zm-16.98 60.79c51.14 14.28 93.02 55.39 110 108.07 11.39 35.51 11 76.81-1.16 111.93-17.95 51.53-60.79 91.86-111.55 105.18-6.17 1.54-12.74 2.89-14.67 2.89-3.28 0-3.47-7.72-3.47-165.97 0-157.48.19-165.97 3.47-165.97 1.75.01 9.66 1.75 17.38 3.87zM632.48 948.51v14.47H188.61v-28.94h443.86v14.47z"/><path d="M217.76 417.99c-4.05 5.21-4.05 5.6-4.05 210.93 0 204.57 0 205.92 3.86 210.16 5.21 5.6 15.44 5.6 20.46.19 3.47-3.86 3.67-10.23 3.67-211.51V420.31l-4.63-3.67c-6.58-5.21-14.49-4.63-19.31 1.35zm121.19-1.35l-4.63 3.67v207.46c0 201.28.19 207.65 3.67 211.51 5.02 5.4 15.25 5.4 20.46-.19 3.86-4.25 3.86-5.6 3.86-210.16 0-205.34 0-205.72-4.05-210.93-4.84-5.99-12.75-6.57-19.31-1.36zm119.84.19c-3.86 3.86-3.86 6.37-3.86 210.93 0 231.58-.96 215.57 13.51 215.57 14.47 0 13.51 16.02 13.51-215.57 0-204.56 0-207.07-3.86-210.93-2.12-2.12-6.37-3.86-9.65-3.86-3.28 0-7.52 1.74-9.65 3.86zm119.85 1.16c-4.05 5.21-4.05 5.6-4.05 210.93 0 204.57 0 205.92 3.86 210.16 5.21 5.6 15.44 5.6 20.46.19 3.47-3.86 3.67-10.23 3.67-211.51V420.31l-4.63-3.67c-6.57-5.21-14.49-4.63-19.31 1.35z"/></svg>