<svg xmlns="http://www.w3.org/2000/svg" viewBox="0 0 1000 1000"><path d="M418.43 200.36c-7.68.46-28.64 2.33-46.56 4.42-101.51 10.94-173.45 39.11-220.71 85.67-37.72 37.72-58.2 85.91-63.33 149.93L86.2 461.8h831.14l-.93-14.67c-5.36-72.17-25.15-119.67-66.35-158.78-18.63-17.93-27.01-23.98-47.5-35.62-50.05-28.17-119.43-45.4-208.37-51.68-30.48-2.09-140.84-2.56-175.76-.69zm167.63 75.2c88 6.29 156.68 24.21 198.82 52.15 23.05 15.37 39.58 34.92 45.4 54.25l1.63 5.35H172.58l1.63-5.35c18.39-59.61 109.89-98.26 253.53-107.1 29.1-1.87 128.75-1.4 158.32.7zM38.94 517.45C1.46 534.91.06 588.46 36.62 608.01c4.66 2.56 15.83 4.19 33.53 4.89l26.54 1.4 5.12 15.37c7.22 21.42 23.05 50.29 35.85 65.42 48.66 57.04 118.27 86.84 235.37 101.27 48.66 6.05 209.3 5.82 258.42 0 77.76-9.54 132.24-25.61 177.87-52.38 23.28-13.74 54.01-42.6 68.45-64.49 11.41-16.76 24.91-46.1 27.47-59.37l1.63-6.98h20.02c24.91 0 35.15-2.79 46.1-12.34 27.24-23.98 20.72-68.21-12.11-83.35-8.85-4.19-26.31-4.42-460.97-4.42-434.66-.01-452.12.23-460.97 4.42zm791.34 100.8c-8.62 28.4-38.65 55.41-80.79 73.34-52.15 22.12-119.9 32.83-219.31 34.92-171.58 3.49-279.61-19.56-330.6-70.31-14.43-14.2-26.77-33.06-26.77-40.74 0-1.63 108.96-2.33 329.66-2.33H831.9l-1.62 5.12z"/></svg>