<svg xmlns="http://www.w3.org/2000/svg" viewBox="0 0 512 512"><g fill="#63c85d"><path d="M262.2 458.6c79.6 0 190.7 1.9 231.1-79C508.6 348.7 512 313 512 279.3c0-44.2-12.3-86.3-41.6-120.6 16.8-50.4 5.5-80.1-7.4-105.6-47.8 0-78.7 9-115 37.2-58.6-13.9-124.9-12.2-180.4.9-36.8-28.5-67.7-38-116.1-38-13.2 26.4-24.2 55.4-7.3 106.2-57.1 65.8-52.6 161.4-22.7 220.2 42.1 81.9 159.8 79 240.7 79zM149.4 245.5c20.3 0 39.8 3.6 59.7 6.3 72.9 11.1 111.3-6.3 155.9-6.3 49.9 0 78.4 40.9 78.4 87.2 0 92.8-85.7 106.9-160.6 106.9C231.2 436.2 71 460.5 71 332.7c0-46.3 28.4-87.2 78.4-87.2z"/><path d="M355.3 390.9c27.5 0 39.1-36.1 39.1-58.2s-11.6-58.2-39.1-58.2-39.1 36.1-39.1 58.2 11.6 58.2 39.1 58.2zm-195.9 0c27.5 0 39.1-36.1 39.1-58.2s-11.6-58.2-39.1-58.2-39.1 36.1-39.1 58.2c-.1 22.1 11.5 58.2 39.1 58.2z"/></g></svg>