<svg xmlns="http://www.w3.org/2000/svg" xmlns:xlink="http://www.w3.org/1999/xlink"><symbol id="icon-appliance" viewBox="0 0 1000 1000">
    <path d="M300.97 182.95c0 167.14.23 173.42 4.66 186.92 6.29 18.62 19.32 35.15 36.55 46.32l14.43 9.31v269.56c.23 262.57.47 269.79 4.89 278.41 5.59 11.17 16.29 16.53 33.06 16.53 15.36 0 26.77-5.82 32.59-16.53 3.96-7.45 4.19-20.72 4.19-278.17V424.81l7.45-3.03c11.41-4.66 32.82-27.23 39.8-41.9 3.26-7.22 7.22-19.79 8.38-27.93 1.63-9.31 2.56-76.35 2.56-178.54V10h-39.58v230.68l-5.82 5.59c-9.78 10.01-24.44 6.75-28.86-6.05-1.63-5.12-2.56-43.53-2.56-118.72V10h-37.24v112.9c0 94.74-.47 114.29-3.49 119.65-5.59 11.17-18.86 13.04-27.93 3.72l-5.82-5.59V10h-37.25v172.95zM679.24 14.66c-37.94 18.16-71.46 88.22-96.6 201.35-18.62 84.27-32.59 208.57-32.59 290.28v29.79H624.54v213.46c0 198.79.23 214.16 4.19 221.84 6.05 12.11 17.23 18.62 32.36 18.62 16.29 0 27.47-4.89 33.29-14.43 4.66-7.68 4.66-10.24 4.66-486.74V10h-5.14c-3.02 0-9.54 2.09-14.66 4.66z"/>
</symbol><symbol id="icon-beer" viewBox="0 0 1000 1000">
    <path d="M293.6 14.26c-36.09 9.46-68.7 30.88-91.67 59.63l-7.53 9.26-24.51.58c-30.1.58-48.44 5.79-70.25 20.07-67.54 44.01-81.24 135.1-29.9 197.43l8.68 10.61.77 272.11c.58 301.83-.19 282.72 13.32 308.2 11.77 22 34.16 38.21 56.54 40.91l10.61 1.35V990h501.76v-55.39l10.42-2.32c23.35-5.21 43.81-21.61 53.84-43.23 5.6-11.77 11-34.35 11-45.55 0-6.56.77-7.91 4.44-8.68 41.69-7.33 54.04-11 79.51-23.35 69.47-33.39 121.39-102.86 137.41-183.72 4.44-23.35 4.44-74.3 0-97.65-12.93-64.84-48.44-122.35-99.58-160.56-27.98-21.04-67.54-38.21-99.97-43.42-23.16-3.67-21.81-3.09-21.81-11.77 0-6.75 1.54-9.65 9.46-18.91 21.81-25.09 31.46-49.79 31.84-80.28.19-22.97-2.51-35.32-12.35-55.97-11.58-24.32-35.51-47.86-59.05-57.9-18.72-8.11-26.63-9.46-50.95-9.65-21.42 0-25.67.58-38.98 5.4l-14.86 5.4-12.34-12.15c-14.67-14.28-28.56-22.97-48.05-30.1-12.74-4.63-16.6-5.21-40.14-5.02-19.49 0-28.18.77-34.35 3.28l-8.11 3.09-12.16-10.81c-16.21-14.47-36.28-25.86-58.86-33.39-17.18-5.98-21.04-6.56-47.67-7.14-25.67-.58-30.88-.19-46.51 4.05zm69.09 25.29c28.75 5.98 51.91 18.53 73.72 40.14l15.25 15.25 10.81-5.02c28.18-12.54 63.3-10.61 88.77 5.02 11.39 6.95 26.83 22.77 34.16 34.74 3.86 6.17 7.14 11.19 7.72 11.19.39 0 5.4-2.89 11-6.56 38.79-24.89 87.04-19.68 119.07 12.35 29.14 29.33 35.32 72.37 16.02 110.97-6.37 12.35-26.05 31.84-38.79 38.4-36.67 18.53-81.44 12.35-108.46-15.25l-8.49-8.68 7.91-6.75c13.7-11.77 31.46-35.12 31.46-41.68 0-7.33-6.17-13.32-13.7-13.32-4.44 0-7.33 1.74-11.96 7.14-13.12 15.82-41.69 42.26-50.76 47.28-25.47 13.89-57.9 14.47-86.84 1.74l-8.1-3.67-16.02 15.82c-18.53 17.95-34.54 27.98-56.74 35.32-13.9 4.82-18.14 5.21-43.42 5.21-36.86 0-50.18-4.05-84.34-25.86-3.86-2.51-4.82-2.32-9.65 1.54-19.3 15.44-40.33 23.74-63.3 24.9-21.42 1.35-35.32-1.54-53.07-10.23-53.08-26.64-73.73-91.87-45.75-144.17 16.98-32.04 56.35-55.39 93.41-55.39 4.63 0 8.3.58 8.3 1.35 0 .96-1.74 6.17-4.05 11.96-9.65 25.86-18.53 76.04-14.86 84.34 2.7 5.98 11 9.26 17.56 6.75 6.56-2.51 8.3-6.37 9.84-22 .77-7.14 3.67-22.77 6.75-34.74 10.81-42.84 24.7-68.12 48.25-87.42 33.38-27.78 77.96-39.36 118.3-30.67zm209.19 261.3c24.32 22.77 51.14 33.39 83.76 33.39 19.3 0 25.09-1.16 50.75-9.46 3.28-.97 3.28 11 2.9 264.97-.58 247.79-.77 266.9-4.05 276.16-5.21 15.63-14.47 27.4-26.44 34.16l-10.61 5.98-253.78.58c-175.23.39-256.86-.19-263.81-1.54-19.88-4.25-34.54-20.46-39.95-44.58-2.7-11.58-3.09-44.58-3.09-270.18 0-243.93.19-256.86 3.47-255.51 28.76 12.16 52.88 16.02 77 12.74 17.95-2.51 41.68-10.81 52.68-18.14l6.56-4.63 15.63 7.33c25.09 12.16 42.07 15.82 72.37 15.82 20.46 0 29.33-.96 41.49-4.25 21.61-5.6 48.63-19.49 66.97-34.16l15.44-12.54 11.96 2.9c23.93 5.98 58.09 3.28 79.12-6.37 4.44-2.12 8.3-3.86 8.68-3.86.41-.2 6.2 5.01 12.95 11.19zm202.64 55.19c36.67 10.61 69.86 31.07 97.84 60.6 87.81 92.25 84.72 242.97-6.56 331.16-32.81 31.65-64.65 49.02-106.53 57.9-23.35 5.02-22.58 5.6-22.58-14.09v-16.98l18.91-4.25c47.28-10.81 87.42-38.6 114.83-79.9 12.93-19.3 21.23-38.21 27.79-63.11 4.25-16.02 5.02-22.58 5.02-48.44 0-26.25-.77-32.42-5.21-49.21-20.07-76.81-78.74-131.62-154-144.55l-7.33-1.35V348.7l10.42 1.35c5.59.59 17.95 3.29 27.4 5.99zm-16.98 60.79c51.14 14.28 93.02 55.39 110 108.07 11.39 35.51 11 76.81-1.16 111.93-17.95 51.53-60.79 91.86-111.55 105.18-6.17 1.54-12.74 2.89-14.67 2.89-3.28 0-3.47-7.72-3.47-165.97 0-157.48.19-165.97 3.47-165.97 1.75.01 9.66 1.75 17.38 3.87zM632.48 948.51v14.47H188.61v-28.94h443.86v14.47z"/>
    <path d="M217.76 417.99c-4.05 5.21-4.05 5.6-4.05 210.93 0 204.57 0 205.92 3.86 210.16 5.21 5.6 15.44 5.6 20.46.19 3.47-3.86 3.67-10.23 3.67-211.51V420.31l-4.63-3.67c-6.58-5.21-14.49-4.63-19.31 1.35zM338.95 416.64l-4.63 3.67v207.46c0 201.28.19 207.65 3.67 211.51 5.02 5.4 15.25 5.4 20.46-.19 3.86-4.25 3.86-5.6 3.86-210.16 0-205.34 0-205.72-4.05-210.93-4.84-5.99-12.75-6.57-19.31-1.36zM458.79 416.83c-3.86 3.86-3.86 6.37-3.86 210.93 0 231.58-.96 215.57 13.51 215.57 14.47 0 13.51 16.02 13.51-215.57 0-204.56 0-207.07-3.86-210.93-2.12-2.12-6.37-3.86-9.65-3.86-3.28 0-7.52 1.74-9.65 3.86zM578.64 417.99c-4.05 5.21-4.05 5.6-4.05 210.93 0 204.57 0 205.92 3.86 210.16 5.21 5.6 15.44 5.6 20.46.19 3.47-3.86 3.67-10.23 3.67-211.51V420.31l-4.63-3.67c-6.57-5.21-14.49-4.63-19.31 1.35z"/>
</symbol><symbol id="icon-bread" viewBox="0 0 1000 1000">
    <path d="M429.23 35.4c-5.83.62-25.8 2.77-44.53 4.3-43.61 4.3-114.86 18.73-152.03 30.71-95.82 31.33-166.46 84.15-198.1 148.34C15.22 258.06 10.31 279.56 10 323.79c0 31.02 1.23 40.23 7.37 57.74 9.83 29.48 32.86 62.35 62.65 89.68l25.19 23.65 1.54 204.54 1.54 204.85 7.06 12.9c8.6 16.58 24.88 32.86 41.46 41.46l12.9 7.06h660.32l12.9-7.06c16.58-8.6 32.86-24.88 41.46-41.46l7.06-12.9 1.54-204.85 1.54-204.54 25.18-23.65c29.79-27.33 52.83-60.2 62.65-89.68 10.14-29.18 10.14-83.54.31-118.86-20.88-72.79-71.87-128.07-155.1-167.69-54.98-26.11-118.24-43.31-199.02-54.06-35.93-4.6-173.83-8.59-199.32-5.52zm202.7 30.41c101.66 13.21 183.35 40.54 237.72 79.54 28.87 20.58 60.5 56.21 73.4 82.31 14.13 28.56 20.27 52.21 22.73 86.92 3.69 58.35-19.35 104.11-75.25 150.18l-22.11 17.82v205.46c0 178.75-.61 207.31-4.61 217.14-6.45 15.05-15.97 24.88-30.71 31.63-11.67 5.53-27.64 5.84-333.23 5.84s-321.56-.31-333.23-5.84c-14.74-6.76-24.26-16.58-30.71-31.63-3.99-9.83-4.61-38.39-4.61-217.14V482.57l-22.12-17.81C53.3 419 30.27 372.93 33.95 314.58c3.38-54.36 20.58-95.21 55.28-132.37 47.3-50.68 110.87-82.92 204.85-103.5 32.25-7.07 91.22-15.67 130.53-18.74 36.25-2.76 170.46.92 207.32 5.84z"/>
    <path d="M413.87 122.93c-144.96 12.59-248.46 53.75-290.54 115.48-20.27 29.48-26.72 49.45-27.03 83.84-.31 26.11.61 30.71 7.99 44.84 8.91 16.89 35.32 44.84 57.12 60.5 7.37 5.22 17.2 15.97 21.5 23.65l8.29 13.82.92 203.93c.61 142.2 1.84 205.47 4.3 208.23 4.61 5.53 601.35 5.83 606.88.31 2.76-2.77 3.69-52.21 3.69-203.32.31-162.46.92-202.38 4.61-212.21 2.76-8.6 10.75-17.81 25.18-30.71 50.68-44.53 65.11-65.73 67.87-98.28 4.3-55.59-31.02-115.48-87.22-148.04-56.81-33.17-138.2-54.67-235.87-62.35-45.45-3.38-125-3.38-167.69.31zm221.75 30.41c130.53 19.65 212.22 62.96 235.87 125 3.69 9.83 7.68 27.64 8.6 39.93 2.15 34.71-2.15 41.46-65.11 98.59-8.6 7.68-17.81 20.27-22.73 30.71l-8.29 17.51-.92 195.64-.92 195.95h-564.5l-.92-197.17-.93-197.5-10.75-19.66c-7.68-14.13-15.97-23.96-30.71-35.63-25.49-20.27-45.45-42.08-50.98-55.28-8.91-21.19-2.76-63.27 13.21-90.6 35.01-59.27 136.06-100.74 277.33-113.64 50.06-4.6 173.83-1.23 221.75 6.15z"/>
    <path d="M298.08 359.11c-19.96 11.98-19.35 5.83-19.35 203.32 0 172.29.31 179.36 6.14 188.88 6.45 10.44 20.27 19.35 30.71 19.35s24.26-8.91 30.71-19.35c5.83-9.52 6.14-16.59 6.14-189.5s-.31-179.98-6.14-189.5c-6.45-10.75-20.27-19.35-31.33-19.35-3.98.01-11.35 2.77-16.88 6.15zm26.42 22.73c2.46 2.76 3.07 53.13 2.76 181.51-.92 165.23-1.23 177.82-6.14 180.89-3.99 2.46-7.06 2.46-10.75 0-5.22-3.07-5.53-15.66-6.45-180.89-.31-128.38.31-178.75 2.76-181.51 1.84-2.46 5.83-4.3 8.91-4.3s7.06 1.84 8.91 4.3zM420.93 359.11c-19.96 11.98-19.35 5.83-19.35 203.32 0 172.29.31 179.36 6.14 188.88 6.45 10.44 20.27 19.35 30.71 19.35s24.26-8.91 30.71-19.35c5.83-9.52 6.14-16.59 6.14-189.5s-.31-179.98-6.14-189.5c-6.45-10.75-20.27-19.35-31.33-19.35-3.98.01-11.35 2.77-16.88 6.15zm26.42 22.73c2.46 2.76 3.07 53.13 2.76 181.51-.92 165.23-1.23 177.82-6.14 180.89-3.99 2.46-7.06 2.46-10.75 0-5.22-3.07-5.53-15.66-6.45-180.89-.31-128.38.31-178.75 2.76-181.51 1.84-2.46 5.83-4.3 8.91-4.3s7.06 1.84 8.91 4.3zM543.78 359.11c-19.96 11.98-19.35 5.83-19.35 203.32 0 172.29.3 179.36 6.14 188.88 6.45 10.44 20.27 19.35 30.71 19.35s24.26-8.91 30.71-19.35c5.84-9.52 6.14-16.59 6.14-189.5s-.3-179.98-6.14-189.5c-6.45-10.75-20.27-19.35-31.33-19.35-3.98.01-11.35 2.77-16.88 6.15zm26.42 22.73c2.46 2.76 3.07 53.13 2.76 181.51-.92 165.23-1.23 177.82-6.14 180.89-3.99 2.46-7.06 2.46-10.75 0-5.22-3.07-5.53-15.66-6.45-180.89-.31-128.38.31-178.75 2.76-181.51 1.84-2.46 5.84-4.3 8.91-4.3s7.06 1.84 8.91 4.3zM666.63 359.11c-19.96 11.98-19.35 5.83-19.35 203.32 0 172.29.31 179.36 6.14 188.88 6.45 10.44 20.27 19.35 30.71 19.35s24.26-8.91 30.71-19.35c5.84-9.52 6.14-16.59 6.14-189.5s-.31-179.98-6.14-189.5c-6.45-10.75-20.27-19.35-31.33-19.35-3.98.01-11.35 2.77-16.88 6.15zm26.42 22.73c2.46 2.76 3.07 53.13 2.76 181.51-.92 165.23-1.23 177.82-6.14 180.89-3.99 2.46-7.06 2.46-10.75 0-5.22-3.07-5.53-15.66-6.45-180.89-.31-128.38.3-178.75 2.76-181.51 1.84-2.46 5.84-4.3 8.91-4.3 3.07 0 7.06 1.84 8.91 4.3z"/>
</symbol><symbol id="icon-hotdog" viewBox="0 0 1000 1000">
    <path d="M418.43 200.36c-7.68.46-28.64 2.33-46.56 4.42-101.51 10.94-173.45 39.11-220.71 85.67-37.72 37.72-58.2 85.91-63.33 149.93L86.2 461.8h831.14l-.93-14.67c-5.36-72.17-25.15-119.67-66.35-158.78-18.63-17.93-27.01-23.98-47.5-35.62-50.05-28.17-119.43-45.4-208.37-51.68-30.48-2.09-140.84-2.56-175.76-.69zm167.63 75.2c88 6.29 156.68 24.21 198.82 52.15 23.05 15.37 39.58 34.92 45.4 54.25l1.63 5.35H172.58l1.63-5.35c18.39-59.61 109.89-98.26 253.53-107.1 29.1-1.87 128.75-1.4 158.32.7zM38.94 517.45C1.46 534.91.06 588.46 36.62 608.01c4.66 2.56 15.83 4.19 33.53 4.89l26.54 1.4 5.12 15.37c7.22 21.42 23.05 50.29 35.85 65.42 48.66 57.04 118.27 86.84 235.37 101.27 48.66 6.05 209.3 5.82 258.42 0 77.76-9.54 132.24-25.61 177.87-52.38 23.28-13.74 54.01-42.6 68.45-64.49 11.41-16.76 24.91-46.1 27.47-59.37l1.63-6.98h20.02c24.91 0 35.15-2.79 46.1-12.34 27.24-23.98 20.72-68.21-12.11-83.35-8.85-4.19-26.31-4.42-460.97-4.42-434.66-.01-452.12.23-460.97 4.42zm791.34 100.8c-8.62 28.4-38.65 55.41-80.79 73.34-52.15 22.12-119.9 32.83-219.31 34.92-171.58 3.49-279.61-19.56-330.6-70.31-14.43-14.2-26.77-33.06-26.77-40.74 0-1.63 108.96-2.33 329.66-2.33H831.9l-1.62 5.12z"/>
</symbol></svg>